<svg id="sprite" xmlns="http://www.w3.org/2000/svg" version="1.0">

	<symbol id="icon-play" xmlns="http://www.w3.org/2000/svg" xmlns:xlink="http://www.w3.org/1999/xlink" version="1.1" x="0px" y="0px" viewBox="0 0 100 100" enable-background="new 0 0 100 100" xml:space="preserve"><g><path d="M50,13.5c-20.126,0-36.5,16.374-36.5,36.5S29.874,86.5,50,86.5S86.5,70.126,86.5,50S70.126,13.5,50,13.5z M42.629,66.107   V33.893L65.371,50L42.629,66.107z"/></g></symbol>

	<symbol id="icon-facebook-share" viewBox="0 0 100 125">
		<path d="M95,58.698c0-2.575-1.059-5.011-2.857-6.772c1.287-1.63,2-3.643,2.016-5.773c0.018-2.448-0.96-4.793-2.752-6.597  c-1.861-1.874-4.418-2.948-7.02-2.948H63.972l1.313-8.516c0.168-1.076,0.248-2.177,0.248-3.267c0-8.425-5.689-18.217-13.021-18.217  c-2.122,0-4.189,0.749-5.817,2.107L45.94,9.347l1.065,13.998c0.045,0.598-0.002,1.19-0.14,1.76c-0.14,0.574-0.37,1.124-0.679,1.631  l-11.215,20.78l-4.196,3.59v34.363l2.941,1.336c0.273,0.124,0.563,0.32,0.911,0.616c4.007,3.407,9.185,3.447,9.404,3.447  l32.668-0.012l0.104-0.004c5.02-0.277,8.948-4.43,8.948-9.452c0-0.759-0.088-1.505-0.264-2.228c3.419-1.462,5.729-4.832,5.729-8.702  c0-1.283-0.254-2.524-0.745-3.682C93.249,65.102,95,62.075,95,58.698z M87.211,64.1l-2.593,0.807l1.633,2.166  c0.75,0.992,1.145,2.168,1.145,3.396c0,2.771-1.986,5.113-4.719,5.572l-2.592,0.431l1.209,2.334c0.422,0.81,0.636,1.686,0.636,2.593  c0,2.979-2.318,5.442-5.289,5.634l-32.605,0.014c-0.097-0.002-4.04-0.075-6.93-2.536c-0.625-0.533-1.201-0.912-1.809-1.186  l-0.699-0.319l0,0v-30.14l3.397-2.906l11.475-21.273c0.507-0.834,0.879-1.735,1.106-2.678c0.234-0.959,0.313-1.951,0.237-2.951  l-0.908-11.935c0.792-0.449,1.689-0.692,2.606-0.692c4.954,0,9.2,7.916,9.2,14.395c0,0.9-0.07,1.805-0.205,2.687l-1.993,12.92  h24.872c1.591,0,3.158,0.663,4.307,1.819c1.07,1.077,1.654,2.454,1.643,3.876c-0.011,1.764-0.83,3.392-2.245,4.464l-2.314,1.752  l2.524,1.434c1.775,1.004,2.876,2.893,2.876,4.923C91.177,61.188,89.583,63.359,87.211,64.1z M30.671,44.519H8.926  C6.76,44.519,5,46.281,5,48.446v41.018c0,2.164,1.76,3.928,3.926,3.928h21.746c2.165,0,3.928-1.764,3.926-3.928V48.446  C34.598,46.281,32.835,44.519,30.671,44.519z M22.316,86.248c-2.268,0-4.107-1.838-4.107-4.105s1.839-4.106,4.107-4.106  s4.106,1.839,4.106,4.106C26.422,84.411,24.584,86.248,22.316,86.248z"/>
	</symbol>

	<symbol id="icon-twitter-share" viewBox="0 0 90 82">
		<path d="M60.879,19.71c3.676,0,6.99,1.549,9.321,4.032c1.932,0.05,2.136,0.068,3.07,0.068c0.562,0,1.388-0.007,3.011-0.018   c-1.03,3.618-1.305,4.361-2.626,8.515c0.024,0.548,0.037,1.097,0.037,1.652c0,16.872-12.844,36.329-36.33,36.329   c-11.246,0-17.558-5.559-16.528-5.559c5.982,0,11.49-2.039,15.86-5.465c-5.588-0.104-25.929-13.025-14.573-37.217   c6.299,7.724,15.708,12.807,26.321,13.339c-0.22-0.934-0.332-1.907-0.332-2.91C48.11,25.426,53.827,19.71,60.879,19.71    M76.281,23.793h0.005 M60.879,16.71c-8.546,0-15.525,6.833-15.762,15.321c-8.059-1.267-15.454-5.482-20.67-11.879   c-0.573-0.703-1.43-1.104-2.324-1.104c-0.122,0-0.245,0.007-0.367,0.022c-1.024,0.126-1.911,0.769-2.349,1.703   c-6.369,13.567-3.303,23.489,0.391,29.423c2.667,4.286,6.408,7.649,9.964,9.725c-2.789,1.193-5.803,1.81-8.926,1.81   c-1.714,0-3.109,1.382-3.109,3.08c0,2.953,4.644,5.043,6.169,5.73c2.785,1.254,7.382,2.748,13.468,2.748   c14.788,0,24.054-6.99,29.223-12.854c6.424-7.287,10.107-16.937,10.107-26.475c0-0.41-0.007-0.825-0.02-1.242   c0.22-0.688,0.408-1.276,0.576-1.801c0.743-2.32,1.089-3.397,1.881-6.175c0.1-0.298,0.154-0.618,0.154-0.95   c0-1.657-1.341-3-2.997-3c-0.002,0-0.004,0-0.006,0c-0.007,0-0.014,0-0.02,0L75.295,20.8c-1,0.007-1.592,0.011-2.024,0.011   c-0.602,0-0.884-0.008-1.576-0.028l-0.239-0.007C68.572,18.179,64.786,16.71,60.879,16.71L60.879,16.71z"/>
	</symbol>

	<!-- Start Social Icons -->

	<symbol id="icon-500px" viewBox="0 0 64 64">
		<g>
			<path d="M22.5,37.4c0,0,0.2,0.5,0.3,0.7c0.5,1.2,1.2,2.3,2.2,3.2c0.9,0.9,2,1.7,3.2,2.2c1.3,0.5,2.6,0.8,4,0.8c1.4,0,2.7-0.3,4-0.8c1.2-0.5,2.3-1.2,3.2-2.2c0.9-0.9,1.7-2,2.2-3.2c0.5-1.3,0.8-2.6,0.8-4c0-1.4-0.3-2.7-0.8-4c-0.5-1.2-1.2-2.3-2.2-3.2s-2-1.7-3.2-2.2c-1.3-0.5-2.6-0.8-4-0.8c-1.4,0-2.8,0.3-4,0.8c-1,0.4-2.7,1.5-3.6,2.5l0,0v-8.4h14c0.5,0,0.5-0.7,0.5-1c0-0.2,0-0.9-0.5-1H23.3c-0.4,0-0.7,0.3-0.7,0.7v11.8c0,0.4,0.5,0.7,0.9,0.7c0.9,0.2,1.1-0.1,1.3-0.4l0,0c0.3-0.5,1.3-1.5,1.3-1.5c1.6-1.6,3.7-2.4,5.9-2.4c2.2,0,4.3,0.9,5.9,2.4c1.6,1.6,2.4,3.6,2.4,5.9c0,2.2-0.9,4.3-2.4,5.9c-1.5,1.5-3.7,2.4-5.9,2.4c-1.5,0-2.9-0.4-4.2-1.2l0-7.1c0-1,0.4-2,1.1-2.8c0.8-0.9,1.9-1.4,3.1-1.4c1.2,0,2.2,0.4,3,1.2c0.8,0.8,1.2,1.8,1.2,3c0,2.4-1.9,4.3-4.3,4.3c-0.5,0-1.3-0.2-1.3-0.2C30.2,38,30,38.7,30,38.9c-0.3,0.9,0.1,1,0.2,1c0.8,0.2,1.3,0.3,1.9,0.3c3.4,0,6.1-2.8,6.1-6.1c0-3.4-2.8-6.1-6.1-6.1c-1.7,0-3.2,0.6-4.4,1.8c-1.1,1.1-1.8,2.6-1.8,4l0,0c0,0.2,0,4.5,0,5.9l0,0c-0.6-0.7-1.3-1.8-1.7-2.9c-0.2-0.4-0.5-0.4-1-0.2C23,36.7,22.4,36.9,22.5,37.4L22.5,37.4z M29.7,35.7c0,0.2,0.2,0.4,0.3,0.5l0,0c0.2,0.2,0.4,0.3,0.5,0.3c0.1,0,0.2-0.1,0.3-0.1c0.1-0.1,1-1.1,1.1-1.1l1.1,1.1c0.1,0.1,0.2,0.2,0.3,0.2c0.2,0,0.4-0.1,0.6-0.3c0.5-0.5,0.2-0.7,0.1-0.8L33,34.3l1.1-1.1c0.2-0.3,0-0.6-0.2-0.8c-0.3-0.3-0.6-0.4-0.8-0.2L32,33.3l-1.1-1.1c-0.1-0.1-0.1-0.1-0.2-0.1c-0.2,0-0.3,0.1-0.5,0.3c-0.4,0.3-0.4,0.6-0.2,0.8l1.1,1.1l-1.1,1.1C29.8,35.5,29.7,35.6,29.7,35.7z M32.2,20.3c-1.8,0-3.8,0.4-5.2,1c-0.2,0.1-0.2,0.2-0.3,0.4c0,0.2,0,0.4,0.1,0.7c0.1,0.2,0.3,0.8,0.8,0.6c1.5-0.6,3.1-0.9,4.5-0.9c1.7,0,3.3,0.3,4.8,1c1.2,0.5,2.3,1.2,3.6,2.3c0.1,0.1,0.2,0.1,0.3,0.1c0.2,0,0.5-0.2,0.7-0.5c0.3-0.4,0.6-0.7,0.2-1c-1.2-1.1-2.5-2-4.1-2.6C36,20.7,34.1,20.3,32.2,20.3z M42,42.8L42,42.8c-0.2-0.2-0.4-0.3-0.6-0.4c-0.2,0-0.3,0-0.4,0.1l-0.1,0.1c-1.1,1.1-2.4,2-3.9,2.6c-1.5,0.6-3.1,1-4.8,1c-1.7,0-3.3-0.3-4.8-1c-1.5-0.6-2.8-1.5-3.9-2.6c-1.2-1.2-2.1-2.5-2.6-3.9c-0.6-1.4-0.7-2.4-0.8-2.8c0,0,0-0.1,0-0.1c-0.1-0.4-0.4-0.4-1-0.3c-0.2,0-0.9,0.1-0.8,0.6l0,0c0.2,1.1,0.5,2.2,0.9,3.3c0.7,1.7,1.7,3.2,3,4.5c1.3,1.3,2.8,2.3,4.5,3c1.7,0.7,3.6,1.1,5.5,1.1c1.9,0,3.7-0.4,5.5-1.1c1.7-0.7,3.2-1.7,4.5-3c0,0,0.1-0.1,0.1-0.1C42.5,43.6,42.6,43.3,42,42.8z"/>
		</g>
	</symbol>

	<symbol id="icon-bandsintown" viewBox="0 0 64 64">
		<g>
			<path d="M25.8,39.3h13.4v1.1H24.7V18h-5.6v28h25.8V33.7h-19V39.3z M31.4,24.7h-5.6v7.8h5.6V24.7z M38.2,24.7h-5.6v7.8h5.6V24.7z M39.3,18v14.6h5.6V18H39.3z"/>
		</g>
	</symbol>

	<symbol id="icon-behance" viewBox="0 0 64 64">
		<g>
			<path d="M29.1,31c0.8-0.4,1.5-0.9,1.9-1.5c0.4-0.6,0.6-1.4,0.6-2.3c0-0.9-0.1-1.6-0.4-2.2 c-0.3-0.6-0.7-1.1-1.2-1.4c-0.5-0.4-1.1-0.6-1.9-0.8c-0.7-0.2-1.5-0.2-2.4-0.2H17v18.5h8.9c0.8,0,1.6-0.1,2.4-0.3 c0.8-0.2,1.5-0.5,2.1-1c0.6-0.4,1.1-1,1.5-1.7c0.4-0.7,0.5-1.5,0.5-2.4c0-1.2-0.3-2.1-0.8-3C31.1,31.9,30.2,31.3,29.1,31z  M21.1,25.7h3.8c0.4,0,0.7,0,1,0.1c0.3,0.1,0.6,0.2,0.9,0.3c0.3,0.2,0.5,0.4,0.6,0.6c0.2,0.3,0.2,0.6,0.2,1.1c0,0.8-0.2,1.3-0.7,1.7 c-0.5,0.3-1.1,0.5-1.8,0.5h-4.1V25.7z M28.2,36.7c-0.2,0.3-0.4,0.6-0.7,0.7c-0.3,0.2-0.6,0.3-1,0.4c-0.4,0.1-0.7,0.1-1.1,0.1h-4.3 v-5.1h4.4c0.9,0,1.6,0.2,2.1,0.6c0.5,0.4,0.8,1.1,0.8,2C28.4,36,28.3,36.4,28.2,36.7z M46.7,32.3c-0.2-0.9-0.6-1.8-1.2-2.5 C45,29,44.3,28.4,43.5,28c-0.8-0.4-1.8-0.7-3-0.7c-1,0-1.9,0.2-2.8,0.5c-0.8,0.4-1.6,0.9-2.2,1.5c-0.6,0.6-1.1,1.4-1.4,2.2 c-0.3,0.9-0.5,1.8-0.5,2.8c0,1,0.2,2,0.5,2.8c0.3,0.9,0.8,1.6,1.4,2.2c0.6,0.6,1.3,1.1,2.2,1.4c0.9,0.3,1.8,0.5,2.9,0.5 c1.5,0,2.8-0.3,3.9-1c1.1-0.7,1.9-1.8,2.4-3.4h-3.2c-0.1,0.4-0.4,0.8-1,1.2c-0.5,0.4-1.2,0.6-1.9,0.6c-1,0-1.8-0.3-2.4-0.8 c-0.6-0.5-0.9-1.5-0.9-2.6H47C47,34.2,47,33.2,46.7,32.3z M37.3,32.9c0-0.3,0.1-0.6,0.2-0.9c0.1-0.3,0.3-0.6,0.5-0.9 c0.2-0.3,0.5-0.5,0.9-0.7c0.4-0.2,0.9-0.3,1.5-0.3c0.9,0,1.6,0.3,2.1,0.7c0.4,0.5,0.8,1.2,0.8,2.1H37.3z M44.1,23.8h-7.5v1.8h7.5 V23.8z"/>
		</g>
	</symbol>

	<symbol id="icon-chownow" viewBox="0 0 64 64">
		<g>
			<path d="M32,16c-7.656,0-13.885,6.229-13.885,13.885c0,10.099,11.459,16.756,11.959,17.256       c0,0,1.167,0.859,1.866,0.859c0.458,0,1.696-0.859,1.696-0.859c0.5-0.5,12.248-7.157,12.248-17.256C45.885,22.229,39.656,16,32,16z        M32.083,39.435c-5.354,0-9.694-4.34-9.694-9.694c0-5.354,4.34-9.693,9.694-9.693c5.354,0,9.693,4.34,9.693,9.693       C41.776,35.095,37.437,39.435,32.083,39.435z M27.574,25.265c0.007,0.007,0.012,0.015,0.02,0.023l2.587,2.347l1.039-1.076       l-2.329-2.568c-0.007-0.007-0.015-0.013-0.022-0.019c-0.005-0.005-0.008-0.011-0.013-0.016c-0.358-0.358-0.939-0.358-1.297,0       c-0.358,0.358-0.358,0.939,0,1.296C27.563,25.257,27.569,25.261,27.574,25.265z M38.707,32.712l0.011,0.01       c0,0-0.735-2.119-2.624-3.011c-0.218-0.113-0.436-0.193-0.65-0.24c-0.035-0.01-0.096-0.021-0.096-0.021       c-0.225-0.041-0.656-0.02-0.656-0.02s-0.658,0.118-1.038-0.26l-0.687-0.747l3.366-3.108c0.007-0.007,0.012-0.015,0.019-0.022       c0.005-0.005,0.011-0.009,0.017-0.014c0.358-0.358,0.358-0.939-0.001-1.297c-0.358-0.358-0.939-0.358-1.296,0       c-0.005,0.005-0.008,0.011-0.013,0.016c-0.007,0.007-0.015,0.012-0.023,0.019l-3.066,3.321l-0.985,1.067l-0.95,1.029       c-0.378,0.385-1.006,0.234-1.006,0.234c-0.763-0.159-1.644,0.103-2.419,0.878c-1.18,1.18-1.788,3.217-0.906,4.099       c0.882,0.881,2.919,0.274,4.099-0.906c0.775-0.775,1.037-1.656,0.878-2.419c0,0-0.15-0.619,0.227-0.998l1.078-0.995l0.778,0.715       c0.386,0.379,0.268,1.044,0.268,1.044c-0.028,0.208,0.015,0.645,0.015,0.645c0.001,0.003,0.002,0.006,0.003,0.009       c0.049,0.272,0.151,0.549,0.306,0.826c0.912,1.828,2.972,2.542,2.972,2.542v0c0.178,0.068,0.356,0.122,0.531,0.163       c0.009,0.002,0.093,0.014,0.154-0.047c0.053-0.053,0.059-0.131,0.025-0.193l-2.508-2.753l0.001-0.001       c-0.08-0.097-0.075-0.24,0.015-0.33c0.091-0.09,0.233-0.095,0.33-0.015l0.001-0.001c0.108,0.09,1.921,1.744,2.81,2.472       c0.005,0.002,0.013,0.002,0.019,0.003c0.084,0.035,0.185,0.019,0.254-0.049c0.07-0.07,0.084-0.173,0.046-0.258       c-0.004-0.01-0.006-0.021-0.013-0.032c-0.726-0.888-2.374-2.681-2.463-2.788l0.001-0.001c-0.08-0.097-0.075-0.24,0.015-0.33       c0.091-0.09,0.233-0.095,0.331-0.015v-0.001l2.724,2.482c0.065,0.059,0.164,0.061,0.227-0.002c0.048-0.048,0.05-0.111,0.049-0.141       c-0.004-0.021-0.01-0.044-0.015-0.068C38.823,33.041,38.771,32.877,38.707,32.712z"/>
		</g>
	</symbol>

	<symbol id="icon-codepen" viewBox="0 0 64 64">
		<g>
			<path d="M19.7,36.9l10.9,7.2v-6.5l-6-4L19.7,36.9z M18.7,29.8v4.4l3.4-2.2L18.7,29.8z M30.6,26.4v-6.5 l-10.9,7.2l4.9,3.2L30.6,26.4z M44.3,27.1l-10.9-7.2v6.5l6,4L44.3,27.1z M32,28.8L27.1,32l4.9,3.2l4.9-3.2L32,28.8z M48,37 c0,0.5-0.2,0.9-0.6,1.1l-14.6,9.6c-0.5,0.3-1,0.3-1.5,0l-14.6-9.6C16.2,37.9,16,37.4,16,37V27c0-0.5,0.2-0.9,0.6-1.1l14.6-9.6 c0.5-0.3,1-0.3,1.5,0l14.6,9.6c0.4,0.3,0.6,0.7,0.6,1.1V37z M33.4,37.6v6.5l10.9-7.2l-4.9-3.2L33.4,37.6z M45.3,34.2v-4.4L41.9,32 L45.3,34.2z"/>
		</g>
	</symbol>

	<symbol id="icon-dribbble" viewBox="0 0 64 64">
		<g>
			<path d="M32,48c-8.8,0-16-7.2-16-16s7.2-16,16-16 s16,7.2,16,16S40.8,48,32,48z M45.5,34.2C45,34,41.3,32.9,37,33.6c1.8,4.9,2.5,8.9,2.7,9.7C42.7,41.3,44.9,38,45.5,34.2z M37.3,44.6 c-0.2-1.2-1-5.4-2.9-10.4c0,0-0.1,0-0.1,0c-7.7,2.7-10.5,8-10.7,8.5c2.3,1.8,5.2,2.9,8.4,2.9C33.9,45.7,35.7,45.3,37.3,44.6z  M21.8,41.2c0.3-0.5,4.1-6.7,11.1-9c0.2-0.1,0.4-0.1,0.5-0.2c-0.3-0.8-0.7-1.6-1.1-2.3c-6.8,2-13.4,2-14,1.9c0,0.1,0,0.3,0,0.4 C18.3,35.5,19.7,38.7,21.8,41.2z M18.6,29.2c0.6,0,6.2,0,12.6-1.7c-2.3-4-4.7-7.4-5.1-7.9C22.4,21.5,19.5,25,18.6,29.2z M28.8,18.7 c0.4,0.5,2.9,3.9,5.1,8c4.9-1.8,6.9-4.6,7.2-4.9c-2.4-2.1-5.6-3.4-9.1-3.4C30.9,18.4,29.8,18.5,28.8,18.7z M42.6,23.4 c-0.3,0.4-2.6,3.3-7.6,5.4c0.3,0.7,0.6,1.3,0.9,2c0.1,0.2,0.2,0.5,0.3,0.7c4.5-0.6,9.1,0.3,9.5,0.4C45.6,28.7,44.5,25.7,42.6,23.4z" />
		</g>
	</symbol>

	<symbol id="icon-dropbox" viewBox="0 0 64 64">
		<g>
			<path d="M25.4,17.1L16,23.3l6.5,5.2l9.5-5.9L25.4,17.1z M16,33.7l9.4,6.1l6.6-5.5l-9.5-5.9L16,33.7z  M32,34.3l6.6,5.5l9.4-6.1l-6.5-5.2L32,34.3z M48,23.3l-9.4-6.1L32,22.6l9.5,5.9L48,23.3z M32,35.5L25.4,41l-2.8-1.8v2.1l9.4,5.7 l9.4-5.7v-2.1L38.6,41L32,35.5z"/>
		</g>
	</symbol>

	<symbol id="icon-email" viewBox="0 0 64 64">
		<g>
			<path d="M17,22v20h30V22H17z M41.1,25L32,32.1L22.9,25H41.1z M20,39V26.6l12,9.3l12-9.3V39H20z"/>
		</g>
	</symbol>

	<symbol id="icon-facebook" viewBox="0 0 64 64">
		<g transform="translate(16.983887, 16.983887)">
			<path d="M28.2916266,0 L1.65188365,0 C0.739854232,0 0,0.739854232 0,1.65188365 L0,28.2916266 C0,29.2049036 0.739854232,29.9435102 1.65188365,29.9435102 L15.9923298,29.9435102 L15.9923298,18.3478859 L12.0884446,18.3478859 L12.0884446,13.8301588 L15.9923298,13.8301588 L15.9923298,10.492705 C15.9923298,6.62624929 18.3553718,4.52271769 21.8051137,4.52271769 C23.458245,4.52271769 24.8793141,4.64373938 25.2935326,4.69863581 L25.2935326,8.7410097 L22.8968042,8.7410097 C21.0253348,8.7410097 20.6610221,9.64056265 20.6610221,10.9505912 L20.6610221,13.8339017 L25.1325863,13.8339017 L24.5524307,18.3628577 L20.6610221,18.3628577 L20.6610221,29.9435102 L28.2903789,29.9435102 C29.2049036,29.9435102 29.9435102,29.2049036 29.9435102,28.2916266 L29.9435102,1.65188365 C29.9435102,0.739854232 29.2049036,0 28.2916266,0" id="Shape"></path>
		</g>
	</symbol>

	<symbol id="icon-flickr" viewBox="0 0 64 64">
		<g>
			<path d="M32,16c-8.8,0-16,7.2-16,16s7.2,16,16,16s16-7.2,16-16S40.8,16,32,16z M26,37c-2.8,0-5-2.2-5-5 s2.2-5,5-5s5,2.2,5,5S28.8,37,26,37z M38,37c-2.8,0-5-2.2-5-5s2.2-5,5-5s5,2.2,5,5S40.8,37,38,37z"/>
		</g>
	</symbol>

	<symbol id="icon-foursquare" viewBox="0 0 64 64">
		<g>
			<path d="M41.5,17c0,0-14.3,0-16.5,0c-2.3,0-3,1.7-3,2.8c0,1.1,0,26.3,0,26.3c0,1.2,0.7,1.7,1,1.8 c0.4,0.1,1.4,0.3,2-0.4c0,0,7.8-9.1,7.9-9.2c0.2-0.2,0.2-0.2,0.4-0.2c0.4,0,3.4,0,5.1,0c2.1,0,2.5-1.5,2.7-2.4 c0.2-0.7,2.3-11.3,2.9-14.7C44.6,18.4,43.9,17,41.5,17z M41.1,35.7c0.2-0.7,2.3-11.3,2.9-14.7 M40.5,21.5l-0.7,3.6 c-0.1,0.4-0.6,0.8-1,0.8c-0.5,0-6.4,0-6.4,0c-0.7,0-1.2,0.5-1.2,1.2v0.8c0,0.7,0.5,1.2,1.2,1.2c0,0,5,0,5.5,0c0.5,0,1,0.6,0.9,1.1 c-0.1,0.5-0.6,3.3-0.7,3.6c-0.1,0.3-0.4,0.8-1,0.8c-0.5,0-4.5,0-4.5,0c-0.8,0-1.1,0.1-1.6,0.8c-0.5,0.7-5.4,6.5-5.4,6.5 c0,0.1-0.1,0-0.1,0V21.4c0-0.5,0.4-1,1-1c0,0,12.8,0,13.3,0C40.2,20.4,40.6,20.9,40.5,21.5z"/>
		</g>
	</symbol>

	<symbol id="icon-github" viewBox="0 0 64 64">
		<g>
			<path d="M32,16c-8.8,0-16,7.2-16,16c0,7.1,4.6,13.1,10.9,15.2 c0.8,0.1,1.1-0.3,1.1-0.8c0-0.4,0-1.4,0-2.7c-4.5,1-5.4-2.1-5.4-2.1c-0.7-1.8-1.8-2.3-1.8-2.3c-1.5-1,0.1-1,0.1-1 c1.6,0.1,2.5,1.6,2.5,1.6c1.4,2.4,3.7,1.7,4.7,1.3c0.1-1,0.6-1.7,1-2.1c-3.6-0.4-7.3-1.8-7.3-7.9c0-1.7,0.6-3.2,1.6-4.3 c-0.2-0.4-0.7-2,0.2-4.2c0,0,1.3-0.4,4.4,1.6c1.3-0.4,2.6-0.5,4-0.5c1.4,0,2.7,0.2,4,0.5c3.1-2.1,4.4-1.6,4.4-1.6 c0.9,2.2,0.3,3.8,0.2,4.2c1,1.1,1.6,2.5,1.6,4.3c0,6.1-3.7,7.5-7.3,7.9c0.6,0.5,1.1,1.5,1.1,3c0,2.1,0,3.9,0,4.4 c0,0.4,0.3,0.9,1.1,0.8C43.4,45.1,48,39.1,48,32C48,23.2,40.8,16,32,16z"/>
		</g>
	</symbol>

	<symbol id="icon-googleplay" viewBox="0 0 64 64">
		<g>
			<path d="M24.4,45.6l16-8.8l-3.6-3.6L24.4,45.6z M22.2,18.5c-0.1,0.2-0.2,0.5-0.2,0.9v25.1 c0,0.4,0.1,0.6,0.2,0.9L35.6,32L22.2,18.5z M47.1,30.8L42.1,28L38.1,32l4,4l5-2.8C48.3,32.5,48.3,31.4,47.1,30.8z M40.4,27.1 l-15.9-8.8l12.3,12.3L40.4,27.1z"/>
		</g>
	</symbol>

	<symbol id="icon-google" viewBox="0 0 64 64">
		<g>
			<path d="M26.182,30.545v3.491h5.775c-0.233,1.498-1.745,4.393-5.775,4.393c-3.476,0-6.313-2.88-6.313-6.429c0-3.549,2.836-6.429,6.313-6.429c1.978,0,3.302,0.844,4.058,1.571l2.764-2.662c-1.775-1.658-4.073-2.662-6.822-2.662C20.553,21.818,16,26.371,16,32c0,5.629,4.553,10.182,10.182,10.182c5.876,0,9.775-4.131,9.775-9.949c0-0.669-0.073-1.178-0.16-1.687H26.182z M45.091,30.545v-2.909h-2.909v2.909h-2.909v2.909h2.909v2.909h2.909v-2.909H48v-2.909H45.091z"/>
		</g>
	</symbol>

	<symbol id="icon-instagram" viewBox="0 0 64 64">
		<g>
			<path d="M46.91,25.816c-0.073-1.597-0.326-2.687-0.697-3.641c-0.383-0.986-0.896-1.823-1.73-2.657c-0.834-0.834-1.67-1.347-2.657-1.73c-0.954-0.371-2.045-0.624-3.641-0.697C36.585,17.017,36.074,17,32,17s-4.585,0.017-6.184,0.09c-1.597,0.073-2.687,0.326-3.641,0.697c-0.986,0.383-1.823,0.896-2.657,1.73c-0.834,0.834-1.347,1.67-1.73,2.657c-0.371,0.954-0.624,2.045-0.697,3.641C17.017,27.415,17,27.926,17,32c0,4.074,0.017,4.585,0.09,6.184c0.073,1.597,0.326,2.687,0.697,3.641c0.383,0.986,0.896,1.823,1.73,2.657c0.834,0.834,1.67,1.347,2.657,1.73c0.954,0.371,2.045,0.624,3.641,0.697C27.415,46.983,27.926,47,32,47s4.585-0.017,6.184-0.09c1.597-0.073,2.687-0.326,3.641-0.697c0.986-0.383,1.823-0.896,2.657-1.73c0.834-0.834,1.347-1.67,1.73-2.657c0.371-0.954,0.624-2.045,0.697-3.641C46.983,36.585,47,36.074,47,32S46.983,27.415,46.91,25.816z M44.21,38.061c-0.067,1.462-0.311,2.257-0.516,2.785c-0.272,0.7-0.597,1.2-1.122,1.725c-0.525,0.525-1.025,0.85-1.725,1.122c-0.529,0.205-1.323,0.45-2.785,0.516c-1.581,0.072-2.056,0.087-6.061,0.087s-4.48-0.015-6.061-0.087c-1.462-0.067-2.257-0.311-2.785-0.516c-0.7-0.272-1.2-0.597-1.725-1.122c-0.525-0.525-0.85-1.025-1.122-1.725c-0.205-0.529-0.45-1.323-0.516-2.785c-0.072-1.582-0.087-2.056-0.087-6.061s0.015-4.48,0.087-6.061c0.067-1.462,0.311-2.257,0.516-2.785c0.272-0.7,0.597-1.2,1.122-1.725c0.525-0.525,1.025-0.85,1.725-1.122c0.529-0.205,1.323-0.45,2.785-0.516c1.582-0.072,2.056-0.087,6.061-0.087s4.48,0.015,6.061,0.087c1.462,0.067,2.257,0.311,2.785,0.516c0.7,0.272,1.2,0.597,1.725,1.122c0.525,0.525,0.85,1.025,1.122,1.725c0.205,0.529,0.45,1.323,0.516,2.785c0.072,1.582,0.087,2.056,0.087,6.061S44.282,36.48,44.21,38.061z M32,24.297c-4.254,0-7.703,3.449-7.703,7.703c0,4.254,3.449,7.703,7.703,7.703c4.254,0,7.703-3.449,7.703-7.703C39.703,27.746,36.254,24.297,32,24.297z M32,37c-2.761,0-5-2.239-5-5c0-2.761,2.239-5,5-5s5,2.239,5,5C37,34.761,34.761,37,32,37z M40.007,22.193c-0.994,0-1.8,0.806-1.8,1.8c0,0.994,0.806,1.8,1.8,1.8c0.994,0,1.8-0.806,1.8-1.8C41.807,22.999,41.001,22.193,40.007,22.193z"/>
		</g>
	</symbol>

	<symbol id="icon-itunes" viewBox="0 0 64 64">
		<g>
			<path d="M41.784,28.836c0,3.5,0.002,7-0.002,10.499c0,0.767-0.105,1.519-0.446,2.217c-0.53,1.086-1.399,1.768-2.55,2.095c-0.642,0.183-1.297,0.288-1.965,0.318c-1.749,0.083-3.261-1.103-3.574-2.823c-0.26-1.419,0.419-2.984,1.91-3.715c0.595-0.294,1.23-0.458,1.871-0.596c0.695-0.15,1.393-0.282,2.084-0.441c0.504-0.116,0.84-0.424,0.939-0.948c0.023-0.116,0.033-0.236,0.033-0.355c0.002-3.336,0.002-6.67-0.002-10.005c0-0.114-0.019-0.23-0.047-0.34c-0.072-0.277-0.274-0.446-0.559-0.43c-0.294,0.017-0.584,0.064-0.873,0.122c-1.397,0.275-2.793,0.559-4.189,0.84c-1.425,0.286-2.851,0.576-4.278,0.864c-0.842,0.171-1.684,0.34-2.525,0.51c-0.03,0.006-0.059,0.016-0.088,0.023c-0.509,0.141-0.693,0.374-0.717,0.9c-0.003,0.08-0.002,0.16-0.002,0.241c-0.002,4.782,0,9.565-0.003,14.345c0,0.773-0.086,1.537-0.396,2.255c-0.512,1.18-1.416,1.914-2.636,2.269c-0.645,0.186-1.307,0.293-1.976,0.316c-1.762,0.066-3.225-1.105-3.527-2.838c-0.261-1.494,0.422-3.098,2.119-3.816c0.656-0.275,1.344-0.427,2.036-0.571c0.527-0.111,1.056-0.211,1.582-0.324c0.703-0.153,1.07-0.595,1.1-1.313c0.003-0.094,0.002-0.183,0.002-0.277c0-5.44,0-10.882,0.003-16.323c0-0.227,0.023-0.46,0.077-0.681c0.128-0.524,0.502-0.823,1.003-0.953c0.469-0.122,0.947-0.207,1.422-0.304c1.347-0.272,2.694-0.543,4.042-0.814c1.393-0.282,2.784-0.562,4.176-0.843c1.23-0.249,2.46-0.501,3.693-0.743c0.404-0.08,0.814-0.161,1.22-0.194c0.57-0.045,0.961,0.313,1.019,0.886c0.014,0.136,0.022,0.274,0.022,0.412C41.786,21.814,41.786,25.325,41.784,28.836L41.784,28.836z"/>
		</g>
	</symbol>

	<symbol id="icon-linkedin" viewBox="0 0 64 64">
		<g>
			<path d="M20.4,44h5.4V26.6h-5.4V44z M23.1,18c-1.7,0-3.1,1.4-3.1,3.1c0,1.7,1.4,3.1,3.1,3.1 c1.7,0,3.1-1.4,3.1-3.1C26.2,19.4,24.8,18,23.1,18z M39.5,26.2c-2.6,0-4.4,1.4-5.1,2.8h-0.1v-2.4h-5.2V44h5.4v-8.6 c0-2.3,0.4-4.5,3.2-4.5c2.8,0,2.8,2.6,2.8,4.6V44H46v-9.5C46,29.8,45,26.2,39.5,26.2z"/>
		</g>
	</symbol>

	<symbol id="icon-medium" viewBox="0 0 195 195">
	    <g stroke="none" stroke-width="1" fill="none" fill-rule="evenodd">
	        <g fill-rule="nonzero">
	            <rect fill="#12100E" x="0" y="0" width="195" height="195"></rect>
	            <path d="M46.5340803,65.2157554 C46.6968378,63.6076572 46.0836,62.018231 44.8828198,60.93592 L32.6512605,46.2010582 L32.6512605,44 L70.6302521,44 L99.9859944,108.380952 L125.794585,44 L162,44 L162,46.2010582 L151.542017,56.2281011 C150.640424,56.9153477 150.193188,58.0448862 150.380019,59.1628454 L150.380019,132.837155 C150.193188,133.955114 150.640424,135.084652 151.542017,135.771899 L161.755369,145.798942 L161.755369,148 L110.38282,148 L110.38282,145.798942 L120.963119,135.527337 C122.002801,134.487948 122.002801,134.182246 122.002801,132.592593 L122.002801,73.0417402 L92.585901,147.755438 L88.6106443,147.755438 L54.3622782,73.0417402 L54.3622782,123.115814 C54.0767278,125.221069 54.7759199,127.3406 56.2581699,128.863022 L70.0186741,145.55438 L70.0186741,147.755438 L31,147.755438 L31,145.55438 L44.7605042,128.863022 C46.2319621,127.338076 46.8903838,125.204485 46.5340803,123.115814 L46.5340803,65.2157554 Z" fill="#FFFFFF"></path>
	        </g>
	    </g>
	</symbol>

	<symbol id="icon-meetup" viewBox="0 0 64 64">
		<g>
			<path d="M30.8,33.4c0-6.3,1.9-11.9,3.5-15.3c0.5-1.1,0.9-1.4,1.9-1.4c1.3,0,2.9,0.2,4.1,0.4 c1.1,0.2,1.5,1.6,1.7,2.5c1.2,4.5,4.7,18.7,5.5,22.4c0.2,0.8,0.6,2,0.1,2.3c-0.4,0.2-2.5,0.9-3.9,1c-0.6,0.1-1.1-0.6-1.4-1.5 c-1.5-4.6-3.5-11.8-5.2-16.6c0,3.7-0.3,10.8-0.4,12c-0.1,1.7-0.4,3.7-1.8,3.9c-1.1,0.2-2.4,0.4-4,0.4c-1.3,0-1.8-0.9-2.4-1.8 c-1-1.4-3.1-4.8-4.1-6.9c0.3,2.3,0.7,4.7,0.9,5.8c0.1,0.8,0,1.5-0.6,1.9c-1,0.7-3.2,1.4-4.1,1.4c-0.8,0-1.5-0.8-1.6-1.6 c-0.7-3.4-1.2-8-1.1-11.1c0-2.8,0-5.9,0.2-8.3c0-0.7,0.3-1.1,0.9-1.4c1.2-0.5,3-0.6,4.7-0.3c0.8,0.1,1,0.8,1.4,1.4 C26.9,25.5,28.9,29.5,30.8,33.4z"/>
		</g>
	</symbol>

	<symbol id="icon-pinterest" viewBox="0 0 64 64">
		<g>
			<path d="M32,16c-8.8,0-16,7.2-16,16c0,6.6,3.9,12.2,9.6,14.7c0-1.1,0-2.5,0.3-3.7 c0.3-1.3,2.1-8.7,2.1-8.7s-0.5-1-0.5-2.5c0-2.4,1.4-4.1,3.1-4.1c1.5,0,2.2,1.1,2.2,2.4c0,1.5-0.9,3.7-1.4,5.7 c-0.4,1.7,0.9,3.1,2.5,3.1c3,0,5.1-3.9,5.1-8.5c0-3.5-2.4-6.1-6.7-6.1c-4.9,0-7.9,3.6-7.9,7.7c0,1.4,0.4,2.4,1.1,3.1 c0.3,0.3,0.3,0.5,0.2,0.9c-0.1,0.3-0.3,1-0.3,1.3c-0.1,0.4-0.4,0.6-0.8,0.4c-2.2-0.9-3.3-3.4-3.3-6.1c0-4.5,3.8-10,11.4-10 c6.1,0,10.1,4.4,10.1,9.2c0,6.3-3.5,11-8.6,11c-1.7,0-3.4-0.9-3.9-2c0,0-0.9,3.7-1.1,4.4c-0.3,1.2-1,2.5-1.6,3.4 c1.4,0.4,3,0.7,4.5,0.7c8.8,0,16-7.2,16-16C48,23.2,40.8,16,32,16z"/>
		</g>
	</symbol>

	<symbol id="icon-pinterest-mask" viewbox="0 0 64 64">
		<g class="svg-mask">
			<path d="M0,0v64h64V0H0z M32,48c-1.6,0-3.1-0.2-4.5-0.7c0.6-1,1.3-2.2,1.6-3.4c0.2-0.7,1.1-4.4,1.1-4.4 c0.6,1.1,2.2,2,3.9,2c5.1,0,8.6-4.7,8.6-11c0-4.7-4-9.2-10.1-9.2c-7.6,0-11.4,5.5-11.4,10c0,2.8,1,5.2,3.3,6.1 c0.4,0.1,0.7,0,0.8-0.4c0.1-0.3,0.2-1,0.3-1.3c0.1-0.4,0.1-0.5-0.2-0.9c-0.6-0.8-1.1-1.7-1.1-3.1c0-4,3-7.7,7.9-7.7 c4.3,0,6.7,2.6,6.7,6.1c0,4.6-2,8.5-5.1,8.5c-1.7,0-2.9-1.4-2.5-3.1c0.5-2,1.4-4.2,1.4-5.7c0-1.3-0.7-2.4-2.2-2.4 c-1.7,0-3.1,1.8-3.1,4.1c0,1.5,0.5,2.5,0.5,2.5s-1.8,7.4-2.1,8.7c-0.3,1.2-0.3,2.6-0.3,3.7C19.9,44.2,16,38.6,16,32 c0-8.8,7.2-16,16-16c8.8,0,16,7.2,16,16C48,40.8,40.8,48,32,48z"/>
		</g>
	</symbol>

	<symbol id="icon-reddit" viewbox="0 0 64 64">
		<g>
			<path d="M47.8,30.7c0-2.1-1.7-3.8-3.8-3.8c-0.9,0-1.7,0.3-2.4,0.9c-2.3-1.4-5.2-2.4-8.5-2.5l1.7-5.3 l4.6,1.1c0.1,1.6,1.5,3,3.2,3c1.8,0,3.2-1.4,3.2-3.2s-1.4-3.2-3.2-3.2c-1.2,0-2.3,0.7-2.8,1.7l-5.3-1.2c-0.4-0.1-0.9,0.1-1,0.6 l-2.1,6.5c-3.5,0.1-6.7,1-9.1,2.6c-0.7-0.5-1.5-0.9-2.4-0.9c-2.1,0-3.8,1.7-3.8,3.8c0,1.3,0.7,2.5,1.7,3.1c0,0.3-0.1,0.6-0.1,0.9 c0,5.3,6.4,9.6,14.2,9.6s14.2-4.3,14.2-9.6c0-0.3,0-0.6-0.1-0.9C47.2,33.2,47.8,32,47.8,30.7z M42.6,19.4c0.8,0,1.5,0.7,1.5,1.5 c0,0.8-0.7,1.5-1.5,1.5s-1.5-0.7-1.5-1.5C41.1,20,41.8,19.4,42.6,19.4z M17.8,30.7c0-1.2,0.9-2.1,2.1-2.1c0.3,0,0.6,0.1,0.9,0.2 c-1.1,0.9-2,2-2.5,3.2C18.1,31.7,17.8,31.2,17.8,30.7z M32,42.6c-6.9,0-12.5-3.5-12.5-7.9s5.6-7.9,12.5-7.9s12.5,3.5,12.5,7.9 S38.9,42.6,32,42.6z M45.6,32.1c-0.5-1.2-1.4-2.3-2.5-3.2c0.3-0.1,0.6-0.2,0.9-0.2c1.2,0,2.1,0.9,2.1,2.1 C46.2,31.2,45.9,31.7,45.6,32.1z M29.4,33.1c0-1.2-1-2.1-2.1-2.1s-2.1,1-2.1,2.1s1,2.2,2.1,2.2S29.4,34.2,29.4,33.1z M36.7,30.9 c-1.2,0-2.1,1-2.1,2.1s1,2.2,2.1,2.2c1.2,0,2.1-1,2.1-2.2S37.9,30.9,36.7,30.9z M36,38.2c-0.8,0.8-2.1,1.1-4,1.1 c-1.9,0-3.2-0.4-4-1.1c-0.3-0.3-0.9-0.3-1.2,0c-0.3,0.3-0.3,0.9,0,1.2c1.1,1.1,2.8,1.6,5.2,1.6c2.4,0,4.1-0.5,5.2-1.6 c0.3-0.3,0.3-0.9,0-1.2C36.9,37.8,36.3,37.8,36,38.2z"></path>
		</g>
	</symbol>

	<symbol id="icon-smugmug" viewBox="0 0 64 64">
		<g>
			<path d="M25.4,22.9c2.8,0,4.1-1.7,3.9-3.1 c-0.1-1.2-1.3-2.4-3.6-2.4c-1.9,0-3.1,1.4-3.3,2.8C22.3,21.6,23.1,23,25.4,22.9z M39.2,22.6c2.6-0.1,3.8-1.5,3.8-2.8 c0-1.5-1.4-3-3.8-2.8c-1.9,0.2-3,1.5-3.2,2.8C35.9,21.3,36.9,22.7,39.2,22.6z M40.9,28.5c-6.6,0.7-6.9,0.7-19,1 c-5.1,0-4,17.5,6.9,17.5C39.2,47,51.7,27.4,40.9,28.5z M29,43.9c-9.5,0-8.2-11.3-6.6-11.4c11.1-0.4,13.9-0.9,17.8-0.9 C44.3,31.6,36.6,43.9,29,43.9z"/>
		</g>
	</symbol>

	<symbol id="icon-snapchat-ghost" viewBox="0 0 24 24">
		<path d="M5.829 4.533c-.6 1.344-.363 3.752-.267 5.436-.648.359-1.48-.271-1.951-.271-.49 0-1.075.322-1.167.802-.066.346.089.85 1.201 1.289.43.17 1.453.37 1.69.928.333.784-1.71 4.403-4.918 4.931-.251.041-.43.265-.416.519.056.975 2.242 1.357 3.211 1.507.099.134.179.7.306 1.131.057.193.204.424.582.424.493 0 1.312-.38 2.738-.144 1.398.233 2.712 2.215 5.235 2.215 2.345 0 3.744-1.991 5.09-2.215.779-.129 1.448-.088 2.196.058.515.101.977.157 1.124-.349.129-.437.208-.992.305-1.123.96-.149 3.156-.53 3.211-1.505.014-.254-.165-.477-.416-.519-3.154-.52-5.259-4.128-4.918-4.931.236-.557 1.252-.755 1.69-.928.814-.321 1.222-.716 1.213-1.173-.011-.585-.715-.934-1.233-.934-.527 0-1.284.624-1.897.286.096-1.698.332-4.095-.267-5.438-1.135-2.543-3.66-3.829-6.184-3.829-2.508 0-5.014 1.268-6.158 3.833z"/>
	</symbol>

	<symbol id="icon-soundcloud" viewBox="0 0 30 30">
		<g>
			<path d="M43.6,30c-0.6,0-1.2,0.1-1.7,0.3c-0.3-4-3.7-7.1-7.7-7.1c-1,0-2,0.2-2.8,0.5 C31.1,23.9,31,24,31,24.3v13.9c0,0.3,0.2,0.5,0.5,0.5c0,0,12.2,0,12.2,0c2.4,0,4.4-1.9,4.4-4.4C48,31.9,46,30,43.6,30z M27.2,25.1 c-0.7,0-1.2,0.5-1.2,1.1v11.3c0,0.7,0.6,1.2,1.2,1.2c0.7,0,1.2-0.6,1.2-1.2V26.2C28.4,25.6,27.8,25.1,27.2,25.1z M22.2,27.8 c-0.7,0-1.2,0.5-1.2,1.1v8.5c0,0.7,0.6,1.2,1.2,1.2s1.2-0.6,1.2-1.2V29C23.4,28.3,22.9,27.8,22.2,27.8z M17.2,30.2 c-0.7,0-1.2,0.5-1.2,1.1v4.9c0,0.7,0.6,1.2,1.2,1.2c0.7,0,1.2-0.6,1.2-1.2v-4.9C18.5,30.7,17.9,30.2,17.2,30.2z"/>
		</g>
	</symbol>

	<symbol id="icon-spotify" viewBox="0 0 64 64">
		<g>
			<path d="M32,16c-8.8,0-16,7.2-16,16c0,8.8,7.2,16,16,16c8.8,0,16-7.2,16-16C48,23.2,40.8,16,32,16 M39.3,39.1c-0.3,0.5-0.9,0.6-1.4,0.3c-3.8-2.3-8.5-2.8-14.1-1.5c-0.5,0.1-1.1-0.2-1.2-0.7c-0.1-0.5,0.2-1.1,0.8-1.2 c6.1-1.4,11.3-0.8,15.5,1.8C39.5,38,39.6,38.6,39.3,39.1 M41.3,34.7c-0.4,0.6-1.1,0.8-1.7,0.4c-4.3-2.6-10.9-3.4-15.9-1.9 c-0.7,0.2-1.4-0.2-1.6-0.8c-0.2-0.7,0.2-1.4,0.8-1.6c5.8-1.8,13-0.9,18,2.1C41.5,33.4,41.7,34.1,41.3,34.7 M41.5,30.2 c-5.2-3.1-13.7-3.3-18.6-1.9c-0.8,0.2-1.6-0.2-1.9-1c-0.2-0.8,0.2-1.6,1-1.9c5.7-1.7,15-1.4,21,2.1c0.7,0.4,0.9,1.3,0.5,2.1 C43.1,30.4,42.2,30.6,41.5,30.2"/>
		</g>
	</symbol>

	<symbol id="icon-stumbleupon" viewBox="0 0 64 64">
		<g>
			<path d="M42.5,30.3v4.9c0,0.9-0.8,1.7-1.7,1.7s-1.7-0.8-1.7-1.7v-4.9l-2.7,1.1l-2.7-1.1v4.9 c0,4,3.2,7.2,7.2,7.2s7.2-3.2,7.2-7.2v-4.9H42.5z M33.7,26.9l2.7,1.1l2.7-1.1v-2.1c0-4-3.2-7.2-7.2-7.2s-7.2,3.2-7.2,7.2v10.4 c0,0.9-0.8,1.7-1.7,1.7s-1.7-0.8-1.7-1.7v-4.9H16v4.9c0,4,3.2,7.2,7.2,7.2s7.2-3.2,7.2-7.2V24.8c0-0.9,0.8-1.7,1.7-1.7 s1.7,0.8,1.7,1.7V26.9z"></path>
		</g>
	</symbol>

	<symbol id="icon-tumblr" viewBox="0 0 64 64">
		<g>
			<path d="M39.2,41c-0.6,0.3-1.6,0.5-2.4,0.5c-2.4,0.1-2.9-1.7-2.9-3v-9.3h6v-4.5h-6V17c0,0-4.3,0-4.4,0 c-0.1,0-0.2,0.1-0.2,0.2c-0.3,2.3-1.4,6.4-5.9,8.1v3.9h3V39c0,3.4,2.5,8.1,9,8c2.2,0,4.7-1,5.2-1.8L39.2,41z"/>
		</g>
	</symbol>

	<symbol id="icon-twitch" viewBox="0 0 64 64">
		<g>
			<path d="M40,25.6h-2.5v7.6H40V25.6z M33,25.6h-2.5v7.6H33V25.6z M20.9,18L19,23.1v20.4h7v3.8h3.8l3.8-3.8h5.7l7.6-7.6V18H20.9z M44.5,34.5L40,39h-7l-3.8,3.8V39h-5.7V20.5h21V34.5z"/>
		</g>
	</symbol>

	<symbol id="icon-twitter" viewBox="0 0 64 64">
		<g>
			<path d="M48,22.1c-1.2,0.5-2.4,0.9-3.8,1c1.4-0.8,2.4-2.1,2.9-3.6c-1.3,0.8-2.7,1.3-4.2,1.6 C41.7,19.8,40,19,38.2,19c-3.6,0-6.6,2.9-6.6,6.6c0,0.5,0.1,1,0.2,1.5c-5.5-0.3-10.3-2.9-13.5-6.9c-0.6,1-0.9,2.1-0.9,3.3 c0,2.3,1.2,4.3,2.9,5.5c-1.1,0-2.1-0.3-3-0.8c0,0,0,0.1,0,0.1c0,3.2,2.3,5.8,5.3,6.4c-0.6,0.1-1.1,0.2-1.7,0.2c-0.4,0-0.8,0-1.2-0.1 c0.8,2.6,3.3,4.5,6.1,4.6c-2.2,1.8-5.1,2.8-8.2,2.8c-0.5,0-1.1,0-1.6-0.1c2.9,1.9,6.4,2.9,10.1,2.9c12.1,0,18.7-10,18.7-18.7 c0-0.3,0-0.6,0-0.8C46,24.5,47.1,23.4,48,22.1z"/>
		</g>
	</symbol>

	<symbol id="icon-vevo" viewBox="0 0 64 64">
		<g>
			<path d="M43,21c-4.5,0-5.4,2.7-6.8,4.6c0,0-3.7,5.6-5.1,7.7l-3-12.3H20l5.1,20.6c1.1,3.7,4.1,3.4,4.1,3.4 c2.1,0,3.6-1.1,5-3.1L48,21C48,21,43.2,21,43,21z"/>
		</g>
	</symbol>

	<symbol id="icon-vimeo" viewBox="0 0 64 64">
		<g>
			<path d="M47,25c-0.1,2.9-2.2,6.9-6.1,12c-4.1,5.3-7.5,8-10.4,8c-1.7,0-3.2-1.6-4.4-4.8 c-0.8-3-1.6-5.9-2.4-8.9c-0.9-3.2-1.9-4.8-2.9-4.8c-0.2,0-1,0.5-2.4,1.4L17,26c1.5-1.3,2.9-2.6,4.4-3.9c2-1.7,3.5-2.6,4.4-2.7 c2.3-0.2,3.8,1.4,4.3,4.8c0.6,3.7,1,6,1.2,6.9c0.7,3.1,1.4,4.6,2.2,4.6c0.6,0,1.6-1,2.8-3c1.3-2,1.9-3.5,2-4.5 c0.2-1.7-0.5-2.6-2-2.6c-0.7,0-1.5,0.2-2.2,0.5c1.5-4.8,4.3-7.2,8.4-7C45.7,19.1,47.2,21.1,47,25z"/>
		</g>
	</symbol>

	<symbol id="icon-vine" viewBox="0 0 64 64">
		<g>
			<path d="M45.2,31.9c-0.8,0.2-1.5,0.3-2.2,0.3c-3.8,0-6.7-2.6-6.7-7.2c0-2.3,0.9-3.4,2.1-3.4 c1.2,0,2,1.1,2,3.2c0,1.2-0.3,2.5-0.6,3.3c0,0,1.2,2,4.4,1.4c0.7-1.5,1-3.5,1-5.2c0-4.6-2.3-7.3-6.6-7.3c-4.4,0-7,3.4-7,7.9 c0,4.4,2.1,8.2,5.5,10c-1.4,2.9-3.3,5.4-5.2,7.3c-3.5-4.2-6.6-9.8-7.9-20.7h-5.1c2.4,18.1,9.4,23.9,11.2,25c1.1,0.6,2,0.6,2.9,0.1 c1.5-0.9,6-5.4,8.6-10.7c1.1,0,2.3-0.1,3.6-0.4V31.9z"/>
		</g>
	</symbol>

	<symbol id="icon-vsco" viewbox="0 0 64 64">
		<g>
			<path d="M32,16c-8.823,0-16,7.178-16,16s7.177,16,16,16s16-7.178,16-16S40.823,16,32,16z M46.118,32c0,0.936-0.096,1.849-0.271,2.735l-3.654-0.979c0.098-0.572,0.161-1.156,0.161-1.756c0-0.6-0.062-1.184-0.161-1.756l3.654-0.979C46.021,30.151,46.118,31.064,46.118,32z M17.882,32c0-0.936,0.096-1.849,0.271-2.734l3.654,0.979c-0.098,0.572-0.161,1.156-0.161,1.755c0,0.599,0.062,1.184,0.161,1.755l-3.654,0.979C17.979,33.849,17.882,32.936,17.882,32zM25.379,24.05l-2.661-2.661c1.37-1.2,2.971-2.138,4.73-2.74l0.977,3.647C27.308,22.71,26.277,23.301,25.379,24.05z M24.048,25.381c-0.749,0.898-1.339,1.928-1.752,3.044l-3.647-0.977c0.601-1.758,1.538-3.358,2.738-4.728L24.048,25.381z M22.297,35.575c0.413,1.117,1.004,2.147,1.753,3.045l-2.661,2.661c-1.2-1.37-2.137-2.97-2.739-4.729L22.297,35.575z M25.38,39.951c0.898,0.749,1.929,1.34,3.045,1.753l-0.977,3.647c-1.759-0.602-3.359-1.539-4.729-2.739L25.38,39.951z M23.529,32c0-4.671,3.8-8.471,8.471-8.471s8.471,3.8,8.471,8.471s-3.8,8.471-8.471,8.471S23.529,36.671,23.529,32z M39.951,25.38l2.661-2.661c1.2,1.37,2.137,2.97,2.738,4.729l-3.647,0.977C41.29,27.308,40.7,26.278,39.951,25.38z M38.62,24.049c-0.898-0.749-1.929-1.34-3.046-1.753l0.977-3.647c1.759,0.601,3.36,1.539,4.73,2.739L38.62,24.049z M38.619,39.952l2.661,2.661c-1.37,1.2-2.97,2.137-4.729,2.738l-0.977-3.647C36.69,41.291,37.721,40.701,38.619,39.952z M39.95,38.621c0.749-0.898,1.34-1.929,1.753-3.046l3.647,0.977c-0.602,1.759-1.539,3.359-2.739,4.729L39.95,38.621z M34.736,18.153l-0.979,3.654C33.185,21.709,32.6,21.647,32,21.647c-0.6,0-1.185,0.062-1.758,0.161l-0.979-3.654c0.886-0.175,1.8-0.271,2.737-0.271C32.936,17.882,33.85,17.979,34.736,18.153z M29.264,45.847l0.979-3.654c0.572,0.098,1.157,0.161,1.757,0.161c0.6,0,1.184-0.062,1.756-0.161l0.979,3.654c-0.886,0.175-1.799,0.271-2.735,0.271C31.064,46.118,30.15,46.021,29.264,45.847z"/>
		</g>
	</symbol>

	<symbol id="icon-wordpress" viewBox="0 0 32 32">
		<path class="path1" d="M2.268 16q0-2.911 1.196-5.589l6.554 17.946q-3.5-1.696-5.625-5.018t-2.125-7.339zM25.268 15.304q0 0.339-0.045 0.688t-0.179 0.884-0.205 0.786-0.313 1.054-0.313 1.036l-1.357 4.571-4.964-14.75q0.821-0.054 1.571-0.143 0.339-0.036 0.464-0.33t-0.045-0.554-0.509-0.241l-3.661 0.179q-1.339-0.018-3.607-0.179-0.214-0.018-0.366 0.089t-0.205 0.268-0.027 0.33 0.161 0.295 0.348 0.143l1.429 0.143 2.143 5.857-3 9-5-14.857q0.821-0.054 1.571-0.143 0.339-0.036 0.464-0.33t-0.045-0.554-0.509-0.241l-3.661 0.179q-0.125 0-0.411-0.009t-0.464-0.009q1.875-2.857 4.902-4.527t6.563-1.67q2.625 0 5.009 0.946t4.259 2.661h-0.179q-0.982 0-1.643 0.723t-0.661 1.705q0 0.214 0.036 0.429t0.071 0.384 0.143 0.411 0.161 0.375 0.214 0.402 0.223 0.375 0.259 0.429 0.25 0.411q1.125 1.911 1.125 3.786zM16.232 17.196l4.232 11.554q0.018 0.107 0.089 0.196-2.25 0.786-4.554 0.786-2 0-3.875-0.571zM28.036 9.411q1.696 3.107 1.696 6.589 0 3.732-1.857 6.884t-4.982 4.973l4.196-12.107q1.054-3.018 1.054-4.929 0-0.75-0.107-1.411zM16 0q3.25 0 6.214 1.268t5.107 3.411 3.411 5.107 1.268 6.214-1.268 6.214-3.411 5.107-5.107 3.411-6.214 1.268-6.214-1.268-5.107-3.411-3.411-5.107-1.268-6.214 1.268-6.214 3.411-5.107 5.107-3.411 6.214-1.268zM16 31.268q3.089 0 5.92-1.214t4.875-3.259 3.259-4.875 1.214-5.92-1.214-5.92-3.259-4.875-4.875-3.259-5.92-1.214-5.92 1.214-4.875 3.259-3.259 4.875-1.214 5.92 1.214 5.92 3.259 4.875 4.875 3.259 5.92 1.214z"></path>
	</symbol>

	<symbol id="icon-yelp" viewBox="0 0 64 64">
		<g>
			<path d="M29.5,35.7c0.5-0.1,0.9-0.6,0.9-1.2c0-0.6-0.3-1.2-0.8-1.4c0,0-1.5-0.6-1.5-0.6 c-5-2.1-5.2-2.1-5.5-2.1c-0.4,0-0.7,0.2-1,0.6c-0.5,0.8-0.7,3.3-0.5,5c0.1,0.6,0.2,1,0.3,1.3c0.2,0.4,0.5,0.6,0.9,0.6 c0.2,0,0.4,0,5.1-1.5C27.5,36.4,29.5,35.7,29.5,35.7z M32.2,37.6c-0.6-0.2-1.2-0.1-1.5,0.4c0,0-1,1.2-1,1.2 c-3.5,4.1-3.7,4.3-3.7,4.5c-0.1,0.1-0.1,0.3-0.1,0.4c0,0.2,0.1,0.4,0.3,0.6c0.8,1,4.7,2.4,6,2.2c0.4-0.1,0.7-0.3,0.9-0.7 C33,46.1,33,45.9,33,41c0,0,0-2.2,0-2.2C33.1,38.3,32.7,37.8,32.2,37.6z M32.3,16.8c-0.1-0.4-0.4-0.7-0.9-0.8 c-1.3-0.3-6.5,1.1-7.5,2.1c-0.3,0.3-0.4,0.7-0.3,1.1c0.2,0.3,6.5,10.4,6.5,10.4c0.9,1.5,1.7,1.3,2,1.2c0.3-0.1,1-0.3,0.9-2.1 C33,26.6,32.4,17.3,32.3,16.8z M36.9,33.4C36.9,33.4,36.8,33.5,36.9,33.4c0.2-0.1,0.7-0.2,1.5-0.4c5.3-1.3,5.5-1.3,5.7-1.5 c0.3-0.2,0.5-0.6,0.5-1c0,0,0,0,0,0c-0.1-1.3-2.4-4.7-3.5-5.2c-0.4-0.2-0.8-0.2-1.1,0c-0.2,0.1-0.4,0.3-3.2,4.2c0,0-1.3,1.7-1.3,1.8 c-0.3,0.4-0.3,1,0,1.5C35.8,33.3,36.3,33.6,36.9,33.4z M44.4,38.6c-0.2-0.1-0.3-0.2-5-1.7c0,0-2-0.7-2.1-0.7c-0.5-0.2-1.1,0-1.4,0.5 c-0.4,0.5-0.5,1.1-0.1,1.6l0.8,1.3c2.8,4.5,3,4.8,3.2,5c0.3,0.2,0.7,0.3,1.1,0.1c1.2-0.5,3.7-3.7,3.9-5 C44.8,39.2,44.7,38.8,44.4,38.6z"/>
		</g>
	</symbol>

	<symbol id="icon-youtube" viewBox="0 0 64 64">
		<g>
			<path d="M46.7,26c0,0-0.3-2.1-1.2-3c-1.1-1.2-2.4-1.2-3-1.3C38.3,21.4,32,21.4,32,21.4h0 c0,0-6.3,0-10.5,0.3c-0.6,0.1-1.9,0.1-3,1.3c-0.9,0.9-1.2,3-1.2,3S17,28.4,17,30.9v2.3c0,2.4,0.3,4.9,0.3,4.9s0.3,2.1,1.2,3 c1.1,1.2,2.6,1.2,3.3,1.3c2.4,0.2,10.2,0.3,10.2,0.3s6.3,0,10.5-0.3c0.6-0.1,1.9-0.1,3-1.3c0.9-0.9,1.2-3,1.2-3s0.3-2.4,0.3-4.9 v-2.3C47,28.4,46.7,26,46.7,26z M28.9,35.9l0-8.4l8.1,4.2L28.9,35.9z"/>
		</g>
	</symbol>

	<symbol id="icon-chain" viewBox="0 0 30 32">
		<path class="path1" d="M26 21.714q0-0.714-0.5-1.214l-3.714-3.714q-0.5-0.5-1.214-0.5-0.75 0-1.286 0.571 0.054 0.054 0.339 0.33t0.384 0.384 0.268 0.339 0.232 0.455 0.063 0.491q0 0.714-0.5 1.214t-1.214 0.5q-0.268 0-0.491-0.063t-0.455-0.232-0.339-0.268-0.384-0.384-0.33-0.339q-0.589 0.554-0.589 1.304 0 0.714 0.5 1.214l3.679 3.696q0.482 0.482 1.214 0.482 0.714 0 1.214-0.464l2.625-2.607q0.5-0.5 0.5-1.196zM13.446 9.125q0-0.714-0.5-1.214l-3.679-3.696q-0.5-0.5-1.214-0.5-0.696 0-1.214 0.482l-2.625 2.607q-0.5 0.5-0.5 1.196 0 0.714 0.5 1.214l3.714 3.714q0.482 0.482 1.214 0.482 0.75 0 1.286-0.554-0.054-0.054-0.339-0.33t-0.384-0.384-0.268-0.339-0.232-0.455-0.063-0.491q0-0.714 0.5-1.214t1.214-0.5q0.268 0 0.491 0.063t0.455 0.232 0.339 0.268 0.384 0.384 0.33 0.339q0.589-0.554 0.589-1.304zM29.429 21.714q0 2.143-1.518 3.625l-2.625 2.607q-1.482 1.482-3.625 1.482-2.161 0-3.643-1.518l-3.679-3.696q-1.482-1.482-1.482-3.625 0-2.196 1.571-3.732l-1.571-1.571q-1.536 1.571-3.714 1.571-2.143 0-3.643-1.5l-3.714-3.714q-1.5-1.5-1.5-3.643t1.518-3.625l2.625-2.607q1.482-1.482 3.625-1.482 2.161 0 3.643 1.518l3.679 3.696q1.482 1.482 1.482 3.625 0 2.196-1.571 3.732l1.571 1.571q1.536-1.571 3.714-1.571 2.143 0 3.643 1.5l3.714 3.714q1.5 1.5 1.5 3.643z"></path>
	</symbol>

	<symbol id="icon-houzz" viewBox="0 0 32 32">
		<path d="M 16 2.28125 L 8 6.84375 L 8 16 L 16 11.4375 L 16 2.28125 z M 16 11.4375 L 24 16 L 24 6.84375 L 16 11.4375 z M 24 16 L 16 20.5625 L 16 29.71875 L 24 25.15625 L 24 16 z M 16 20.5625 L 8 16 L 8 25.15625 L 16 20.5625 z"/>
	</symbol>

	<symbol id="icon-docker-hub" viewBox="0 0 60 43"><g xmlns="http://www.w3.org/2000/svg" fill-rule="evenodd"><path d="M3.757 15.768h6.04v5.873h-6.04V15.77zM11.17 15.768h6.04v5.873h-6.04V15.77zM11.17 8.24h6.04v5.87h-6.04V8.24zM18.58 15.768h6.043v5.873H18.58V15.77zM18.58 8.24h6.043v5.87H18.58V8.24zM25.993 15.768h6.042v5.873h-6.042V15.77zM25.993 8.24h6.042v5.87h-6.042V8.24zM33.405 15.768h6.042v5.873h-6.042V15.77zM25.993.708h6.042V6.58h-6.042V.708zM12.194 30.12c-.93 0-1.684.733-1.684 1.636 0 .902.755 1.635 1.684 1.635.928 0 1.683-.732 1.683-1.634 0-.903-.755-1.637-1.683-1.637"/><path d="M58.905 18.806c-2.03-1.138-4.73-1.294-7.03-.636-.283-2.377-1.89-4.46-3.8-5.953l-.758-.593-.638.716c-1.28 1.438-1.66 3.83-1.487 5.666.13 1.35.565 2.722 1.42 3.806-.65.38-1.388.682-2.045.9-1.34.44-2.795.685-4.21.685H.613l-.085.89c-.285 2.972.134 5.947 1.398 8.66l.544 1.078.062.1c3.737 6.17 10.3 8.768 17.452 8.768 13.846 0 25.265-6.01 30.51-18.708 3.505.178 7.09-.83 8.805-4.083l.437-.83-.832-.466zm-46.71 16.056c-1.764 0-3.198-1.394-3.198-3.106 0-1.713 1.434-3.107 3.197-3.107 1.763 0 3.197 1.393 3.197 3.106 0 1.712-1.433 3.106-3.196 3.106z"/></g>
</symbol>

</svg>